<?xml version="1.0" standalone="no"?>
<!DOCTYPE svg PUBLIC "-//W3C//DTD SVG 20010904//EN"
 "http://www.w3.org/TR/2001/REC-SVG-20010904/DTD/svg10.dtd">
<svg version="1.0" xmlns="http://www.w3.org/2000/svg"
 width="424.000000pt" height="286.000000pt" viewBox="0 0 424.000000 286.000000"
 preserveAspectRatio="xMidYMid meet">
<metadata>
Created by potrace 1.16, written by Peter Selinger 2001-2019
</metadata>
<g transform="translate(0.000000,286.000000) scale(0.100000,-0.100000)"
fill="currentColor" stroke="none">
<path d="M804 2273 c17 -46 386 -715 823 -1493 156 -279 175 -302 249 -316 26
-5 46 0 81 18 45 23 52 33 221 328 95 168 177 309 181 313 4 4 81 -124 171
-285 90 -161 177 -308 194 -326 57 -61 153 -63 208 -5 31 35 896 1552 909
1595 29 102 -76 206 -179 178 -23 -6 -53 -21 -66 -33 -20 -18 -623 -1064 -696
-1208 -25 -48 -22 -105 10 -199 10 -30 17 -56 15 -58 -8 -9 -160 252 -476 818
-234 421 -359 634 -380 652 -94 80 -239 9 -239 -117 0 -34 25 -87 150 -311 82
-148 159 -277 170 -286 25 -20 60 -11 98 25 16 14 3 -15 -36 -83 -32 -58 -117
-206 -187 -330 -70 -124 -128 -226 -129 -227 -1 -1 -166 290 -365 647 -200
357 -375 661 -388 675 -36 36 -82 45 -222 45 -113 0 -123 -1 -117 -17z"/>
<path d="M2716 2280 c-64 -20 -111 -90 -104 -154 5 -39 131 -286 147 -286 3 0
38 55 76 123 62 108 70 128 70 174 0 100 -95 172 -189 143z"/>
</g>
</svg>
